<svg width="150" height="38" viewBox="0 0 150 38" fill="none" xmlns="http://www.w3.org/2000/svg">
<path fill-rule="evenodd" clip-rule="evenodd" d="M69.3199 36.7946H78.257V1.14258H69.3199V36.7946Z" fill="white"/>
<path fill-rule="evenodd" clip-rule="evenodd" d="M100.448 29.2862C106.127 29.2862 110.3 24.4203 110.3 18.9581C110.3 13.4954 106.104 8.67578 100.448 8.67578C94.7693 8.67578 90.5739 13.4954 90.5739 18.9581C90.5739 24.4203 94.7693 29.2862 100.448 29.2862ZM100.518 0C111.227 0 119.85 8.2167 119.85 18.8892C119.85 29.6075 111.158 37.9846 100.425 37.9846C89.6929 37.9846 81.0006 29.7224 81.0006 19.027C81.0006 8.35423 89.8091 0 100.518 0ZM120.878 26.0127L129.078 24.0837C129.667 28.3675 132.815 29.9153 136.122 29.9153C139.407 29.9153 140.608 27.9863 140.608 26.4836C140.608 25.2724 139.905 24.0837 137.504 23.6128L132.498 22.6482C126.518 21.5045 122.282 17.7811 122.282 12.0618C122.282 5.24354 128.557 0.443744 135.647 0.443744C144.776 0.443744 148.536 6.09588 149.193 10.8284L141.151 13.0712C140.721 10.1554 138.909 8.04732 135.602 8.04732C132.747 8.04732 131.388 9.93128 131.388 11.3666C131.388 12.5553 131.955 13.9236 134.084 14.3272L139.294 15.314C146.112 16.615 149.85 20.7418 149.85 26.1024C149.85 31.934 144.776 37.5411 136.077 37.5411C126.971 37.5411 122.078 32.8085 120.878 26.0127Z" fill="white"/>
<path fill-rule="evenodd" clip-rule="evenodd" d="M9.618 36.7946H0L15.904 1.14258H25.568L9.618 36.7946Z" fill="#3B6BE3"/>
<path fill-rule="evenodd" clip-rule="evenodd" d="M43.448 1.12061H32.37L44.472 18.5646L37.738 28.3406L25.606 1.14161H15.941L31.892 36.7946H42.207L49.742 25.4926L57.188 36.7946H67.616L55.169 18.5646L67.115 1.12061H56.185L49.742 11.6806L43.448 1.12061Z" fill="white"/>
</svg>
