<?xml version="1.0" encoding="iso-8859-1"?>
<!-- Uploaded to: SVG Repo, www.svgrepo.com, Generator: SVG Repo Mixer Tools -->
<svg height="800px" width="800px" version="1.1" id="Layer_1" xmlns="http://www.w3.org/2000/svg" xmlns:xlink="http://www.w3.org/1999/xlink" 
	 viewBox="0 0 512.001 512.001" xml:space="preserve">
<path style="fill:#FEE187;" d="M122.77,161.65c0,0,45.9-20.341,104.992-26.788c9.462-1.033,48.627-28.953,48.876-29.136
	c25.721-18.88,45.705,55.925,45.705,55.925c0.23-1.321,0.458-2.679,0.68-4.069c0.099-0.619,0.197-1.246,0.294-1.877
	c2.235-14.525,11.135-32.119,11.071-46.84c-0.042-9.601-0.831-17.98-2.708-23.489c-17.084-50.181-58.154-33.647-58.154-33.647
	s-28.646-38.475-50.41-37.295c-0.242-0.007-0.487-0.033-0.726-0.032v0.088c-2.096,0.202-4.125,0.775-6.052,1.812
	c-56.234,30.232-63.686,26.45-76.303,30.833c-30.592,10.626-31.394,7.785-27.54,31.363
	C118.933,117.895,121.566,146.583,122.77,161.65z"/>
<g>
	<path style="fill:#FFC61B;" d="M312.64,482.4c-13.181,0-25.574-5.133-34.896-14.456c-9.321-9.32-14.454-21.712-14.454-34.896
		c0-13.181,5.133-25.574,14.456-34.896l60.814-60.816c5.626-5.623,14.742-5.623,20.369,0c5.624,5.624,5.624,14.744,0,20.369
		l-60.816,60.816c-3.881,3.88-6.019,9.039-6.019,14.526c0,5.489,2.136,10.648,6.017,14.528c3.881,3.881,9.04,6.019,14.528,6.019
		c5.489,0,10.648-2.137,14.528-6.019l66.76-66.759c19.24-19.24,19.24-50.55,0-69.79c-9.321-9.323-21.713-14.456-34.896-14.456
		s-25.574,5.133-34.896,14.456c-5.623,5.623-14.742,5.623-20.369,0c-5.624-5.624-5.624-14.742,0-20.369
		c14.761-14.761,34.387-22.893,55.264-22.893c20.876,0,40.502,8.132,55.263,22.893c30.471,30.471,30.471,80.053,0,110.527
		l-66.759,66.759C338.214,477.267,325.822,482.4,312.64,482.4z"/>
	<path style="fill:#FFC61B;" d="M345.313,80.734c-13.632-40.039-41.204-46.017-56.427-46.017c-3.635,0-6.978,0.337-9.87,0.808
		C268.079,22.58,245.882,0.006,224.104,0.006c-0.302,0-0.603,0.004-0.904,0.013c-0.277-0.012-0.533-0.01-0.899-0.019
		c-1.167,0.007-2.3,0.154-3.385,0.426c-3.317,0.544-6.472,1.615-9.4,3.192c-41.442,22.278-54.99,25.234-63.955,27.192
		c-3.206,0.699-6.521,1.423-10.255,2.721c-3.343,1.161-6.323,2.157-8.976,3.046c-13.077,4.375-20.971,7.017-26.042,14.719
		c-5.477,8.32-4.023,17.215-2.011,29.526c4.636,28.355,8.037,55.84,10.11,81.699v17.845c0,29.356,11.137,56.155,29.4,76.411
		c-38.037,18.588-62.933,59.213-62.933,106.574v105.696c0,7.953,6.448,14.402,14.402,14.402h126.966
		c4.702,8.744,10.72,16.962,18.092,24.334c2.813,2.811,6.498,4.218,10.184,4.218c3.686,0,7.373-1.407,10.184-4.218
		c5.626-5.624,5.626-14.744,0-20.369c-29.482-29.482-29.482-77.45,0-106.932l30.909-30.909c5.624-5.624,5.624-14.744,0-20.369
		c-5.626-5.623-14.742-5.623-20.369,0l-30.909,30.909c-25.636,25.638-35.115,61.396-28.463,94.53H103.661v-91.294
		c0-41.832,23.644-75.466,59.407-85.543c17.355,10.646,37.75,16.798,59.56,16.798c62.992,0,114.238-51.247,114.238-114.238v-18.261
		c0.124-0.745,0.252-1.475,0.373-2.234l0.311-1.976c0.756-4.92,2.62-10.812,4.593-17.05c3.29-10.406,6.691-21.163,6.644-32.042
		C348.735,96.627,347.597,87.446,345.313,80.734z M135.473,63.889c2.745-0.919,5.829-1.95,9.287-3.151
		c2.107-0.732,4.136-1.174,6.945-1.787c11.165-2.437,26.456-5.775,71.458-29.967c0.073-0.039,0.225-0.121,0.601-0.157
		c0.033-0.003,0.066-0.006,0.099-0.01c0.01,0,0.022-0.001,0.032-0.001l0.21-0.006c8.431,0,26.728,16.618,37.868,31.52
		c3.962,5.323,10.754,7.367,16.857,4.79c0.578-0.206,4.704-1.597,10.056-1.597c13.551,0,23.089,8.667,29.158,26.495
		c0.566,1.661,1.887,6.827,1.94,18.912c0.009,1.897-0.226,3.991-0.631,6.215c-10.108-18.058-21.395-26.875-34.305-26.875
		c-5.922,0-11.595,1.95-16.861,5.793c-15.582,11.16-36.811,24.687-42.569,26.547c-37.875,4.194-70.23,13.76-89.574,20.521
		c-0.248-0.579-0.543-1.132-0.86-1.669c-2.104-20.413-4.933-41.606-8.476-63.286c-0.457-2.796-1.03-6.298-1.295-8.751
		C127.878,66.431,131.72,65.145,135.473,63.889z M222.628,265.798c-47.107,0-85.434-38.325-85.434-85.434v-8.987
		c15.503-5.876,50.469-17.652,92.129-22.198c13.566-1.481,48.686-26.633,55.781-31.803c1.81,1.244,7.321,6.158,14.593,23.106
		c4.384,10.216,7.37,20.123,8.366,23.591v16.292C308.063,227.472,269.736,265.798,222.628,265.798z"/>
</g>
</svg>