<?xml version="1.0" encoding="UTF-8"?> <svg xmlns="http://www.w3.org/2000/svg" width="587" height="587" viewBox="0 0 587 587" fill="none"><path d="M29.5298 157.076C29.5298 157.076 41.8396 144.706 51.977 136.702C51.977 136.702 75.1482 107.596 101.94 98.1365C101.94 98.1365 128.732 90.1323 140.317 98.1365C140.317 98.1365 142.49 84.3111 155.523 78.4899C155.523 78.4899 189.556 66.1198 196.073 61.0262C196.073 61.0262 196.797 81.4005 201.142 91.5876C201.142 91.5876 204.762 110.507 182.315 122.149C182.315 122.149 194.625 146.889 195.349 161.442C195.349 161.442 251.105 272.773 274.276 293.875C274.276 293.875 327.859 354.27 322.791 403.75C322.791 403.75 337.997 373.917 384.339 346.993C384.339 346.993 441.543 317.16 425.613 224.748C425.613 224.748 414.027 166.536 357.548 179.633C357.548 179.633 318.446 189.821 345.238 227.659C345.238 227.659 346.686 236.39 342.341 234.207C342.341 234.207 322.067 228.386 316.274 220.382C316.274 220.382 311.929 219.654 316.998 229.114C316.998 229.114 203.314 163.625 303.964 79.2175C303.964 79.2175 302.516 71.2133 286.586 77.7622C286.586 77.7622 410.407 4.26936 516.126 110.507C516.126 110.507 588.536 203.646 542.917 312.794C542.917 312.794 521.918 360.819 458.198 393.563C458.198 393.563 379.995 435.767 375.65 438.678L382.167 440.133C382.167 440.133 355.375 445.954 352.479 452.503L353.203 456.869C353.203 456.869 333.652 460.507 311.205 479.426C311.205 479.426 288.758 508.532 262.69 512.17C262.69 512.17 264.863 513.626 267.035 506.349C267.035 506.349 248.932 501.983 246.036 523.085C246.036 523.085 247.484 532.545 206.21 528.906C206.21 528.906 130.904 525.996 106.285 534L109.181 528.179C109.181 528.179 100.492 526.723 97.5954 530.362C97.5954 530.362 97.5953 514.353 129.456 517.264C129.456 517.264 99.7676 498.345 99.7676 469.239C99.7676 469.239 93.9748 439.405 113.526 409.572C113.526 409.572 143.214 357.181 122.215 349.904C122.215 349.904 117.87 345.538 113.526 354.27C113.526 354.27 106.285 360.091 86.0097 336.806C86.0097 336.806 56.3216 306.973 55.5975 341.9C55.5975 341.9 54.8734 351.359 46.9083 338.989C46.9083 338.989 42.5636 340.445 44.0118 345.538C44.0118 345.538 27.3575 338.989 34.5985 322.981C34.5985 322.981 37.495 293.147 72.2518 296.058C72.2518 296.058 65.0108 257.492 77.3205 242.939C77.3205 242.939 69.3554 240.756 68.6313 247.305C68.6313 247.305 68.6313 225.476 91.0784 208.74C91.0784 208.74 91.0784 198.552 78.7687 202.918C78.7687 202.191 23.0129 196.369 29.5298 157.076Z" fill="url(#paint0_linear_6865_4098)"></path><mask id="mask0_6865_4098" style="mask-type:alpha" maskUnits="userSpaceOnUse" x="29" y="53" width="529" height="481"><path d="M29.5298 157.076C29.5298 157.076 41.8396 144.706 51.977 136.702C51.977 136.702 75.1482 107.596 101.94 98.1365C101.94 98.1365 128.732 90.1323 140.317 98.1365C140.317 98.1365 142.49 84.3111 155.523 78.4899C155.523 78.4899 189.556 66.1198 196.073 61.0262C196.073 61.0262 196.797 81.4005 201.142 91.5876C201.142 91.5876 204.762 110.507 182.315 122.149C182.315 122.149 194.625 146.889 195.349 161.442C195.349 161.442 251.105 272.773 274.276 293.875C274.276 293.875 327.859 354.27 322.791 403.75C322.791 403.75 337.997 373.917 384.339 346.993C384.339 346.993 441.543 317.16 425.613 224.748C425.613 224.748 414.027 166.536 357.548 179.633C357.548 179.633 318.446 189.821 345.238 227.659C345.238 227.659 346.686 236.39 342.341 234.207C342.341 234.207 322.067 228.386 316.274 220.382C316.274 220.382 311.929 219.654 316.998 229.114C316.998 229.114 203.314 163.625 303.964 79.2175C303.964 79.2175 302.516 71.2133 286.586 77.7622C286.586 77.7622 410.407 4.26936 516.126 110.507C516.126 110.507 588.536 203.646 542.917 312.794C542.917 312.794 521.918 360.819 458.198 393.563C458.198 393.563 379.995 435.767 375.65 438.678L382.167 440.133C382.167 440.133 355.375 445.954 352.479 452.503L353.203 456.869C353.203 456.869 333.652 460.507 311.205 479.426C311.205 479.426 288.758 508.532 262.69 512.17C262.69 512.17 264.863 513.626 267.035 506.349C267.035 506.349 248.932 501.983 246.036 523.085C246.036 523.085 247.484 532.545 206.21 528.906C206.21 528.906 130.904 525.996 106.285 534L109.181 528.179C109.181 528.179 100.492 526.723 97.5954 530.362C97.5954 530.362 97.5953 514.353 129.456 517.264C129.456 517.264 99.7676 498.345 99.7676 469.239C99.7676 469.239 93.9748 439.405 113.526 409.572C113.526 409.572 143.214 357.181 122.215 349.904C122.215 349.904 117.87 345.538 113.526 354.27C113.526 354.27 106.285 360.091 86.0097 336.806C86.0097 336.806 56.3216 306.973 55.5975 341.9C55.5975 341.9 54.8734 351.359 46.9083 338.989C46.9083 338.989 42.5636 340.445 44.0118 345.538C44.0118 345.538 27.3575 338.989 34.5985 322.981C34.5985 322.981 37.495 293.147 72.2518 296.058C72.2518 296.058 65.0108 257.492 77.3205 242.939C77.3205 242.939 69.3554 240.756 68.6313 247.305C68.6313 247.305 68.6313 225.476 91.0784 208.74C91.0784 208.74 91.0784 198.552 78.7687 202.918C78.7687 202.191 23.0129 196.369 29.5298 157.076Z" fill="url(#paint1_linear_6865_4098)"></path></mask><g mask="url(#mask0_6865_4098)"><g filter="url(#filter0_i_6865_4098)"><path d="M224.192 377.344C161.928 277.499 55.0296 271.013 9.36345 280.25L-40 308.75L161.25 657.325L384.252 528.575C356.842 519.767 286.456 477.188 224.192 377.344Z" fill="#AA0023"></path></g><g filter="url(#filter1_i_6865_4098)"><path d="M430 102C434 219.6 523.333 278.667 567.5 293.5L624.5 293.5L624.5 -109L367 -109C386.333 -87.6667 426 -15.6001 430 102Z" fill="#F10034"></path></g></g><defs><filter id="filter0_i_6865_4098" x="-40" y="277.215" width="424.252" height="390.11" filterUnits="userSpaceOnUse" color-interpolation-filters="sRGB"><feFlood flood-opacity="0" result="BackgroundImageFix"></feFlood><feBlend mode="normal" in="SourceGraphic" in2="BackgroundImageFix" result="shape"></feBlend><feColorMatrix in="SourceAlpha" type="matrix" values="0 0 0 0 0 0 0 0 0 0 0 0 0 0 0 0 0 0 127 0" result="hardAlpha"></feColorMatrix><feOffset dy="10"></feOffset><feGaussianBlur stdDeviation="30"></feGaussianBlur><feComposite in2="hardAlpha" operator="arithmetic" k2="-1" k3="1"></feComposite><feColorMatrix type="matrix" values="0 0 0 0 1 0 0 0 0 1 0 0 0 0 1 0 0 0 0.25 0"></feColorMatrix><feBlend mode="normal" in2="shape" result="effect1_innerShadow_6865_4098"></feBlend></filter><filter id="filter1_i_6865_4098" x="367" y="-109" width="257.5" height="412.5" filterUnits="userSpaceOnUse" color-interpolation-filters="sRGB"><feFlood flood-opacity="0" result="BackgroundImageFix"></feFlood><feBlend mode="normal" in="SourceGraphic" in2="BackgroundImageFix" result="shape"></feBlend><feColorMatrix in="SourceAlpha" type="matrix" values="0 0 0 0 0 0 0 0 0 0 0 0 0 0 0 0 0 0 127 0" result="hardAlpha"></feColorMatrix><feOffset dy="10"></feOffset><feGaussianBlur stdDeviation="30"></feGaussianBlur><feComposite in2="hardAlpha" operator="arithmetic" k2="-1" k3="1"></feComposite><feColorMatrix type="matrix" values="0 0 0 0 1 0 0 0 0 1 0 0 0 0 1 0 0 0 0.25 0"></feColorMatrix><feBlend mode="normal" in2="shape" result="effect1_innerShadow_6865_4098"></feBlend></filter><linearGradient id="paint0_linear_6865_4098" x1="558.305" y1="53" x2="34.991" y2="539.715" gradientUnits="userSpaceOnUse"><stop stop-color="#FF0036"></stop><stop offset="1" stop-color="#5A0013"></stop></linearGradient><linearGradient id="paint1_linear_6865_4098" x1="558.305" y1="53" x2="34.991" y2="539.715" gradientUnits="userSpaceOnUse"><stop stop-color="#FF0036"></stop><stop offset="1" stop-color="#5A0013"></stop></linearGradient></defs></svg> 